<svg xmlns="http://www.w3.org/2000/svg" viewBox="0 0 512 512">
  <defs>
    <linearGradient id="foxGrad" x1="0%" y1="0%" x2="100%" y2="100%">
      <stop offset="0%" style="stop-color:#FF8C00;stop-opacity:1" />
      <stop offset="100%" style="stop-color:#FF4500;stop-opacity:1" />
    </linearGradient>
  </defs>
  <!-- Background Circle for a modern look -->
  <circle cx="256" cy="256" r="240" fill="#f8f9fa" stroke="#e9ecef" stroke-width="2"/>
  
  <!-- Artistic Fox Head -->
  <path d="M256 80c-20 0-45 15-60 30-15 15-25 40-25 40s-10-5-20-5c-15 0-30 10-30 25 0 20 20 45 45 60 5 3 10 5 15 7-5 15-5 35 5 55 15 30 45 50 70 50s55-20 70-50c10-20 10-40 5-55 5-2 10-4 15-7 25-15 45-40 45-60 0-15-15-25-30-25-10 0-20 5-20 5s-10-25-25-40c-15-15-40-30-60-30z" fill="url(#foxGrad)"/>
  
  <!-- Detailed Fur and Features -->
  <path d="M256 340c-30 0-60-20-75-45 15 10 40 15 75 15s60-5 75-15c-15 25-45 45-75 45z" fill="#fff" opacity="0.8"/>
  <path d="M210 190a15 15 0 1 0 0-30 15 15 0 0 0 0 30zM302 190a15 15 0 1 0 0-30 15 15 0 0 0 0 30z" fill="#1a1a1b"/>
  <path d="M256 240c-5 0-10-5-10-10s5-10 10-10 10 5 10 10-5 10-10 10z" fill="#1a1a1b"/>
  
  <!-- Tail Accent -->
  <path d="M380 320c0 0 40 20 40 60s-40 80-80 80-60-30-60-30 20-10 40-30 60-80 60-80z" fill="url(#foxGrad)" opacity="0.6"/>
</svg>
